<svg    xmlns="http://www.w3.org/2000/svg"
		style="display:none"
		aria-hidden="true"
		focusable="false">

	<symbol id="oght-icon" viewBox="0 0 70.28 46.85">
		<defs>
			<linearGradient id="oght-icon-gradient-1" x1="17.95" y1="23.42" x2="35.14" y2="23.42" gradientUnits="userSpaceOnUse">
				<stop offset="0" style="stop-color:#fff;" />
				<stop offset="1" style="stop-color:#2b2872;" />
			</linearGradient>

			<linearGradient id="oght-icon-gradient-2" x1="35.14" x2="52.33" href="#oght-icon-gradient-1" />

			<linearGradient id="oght-icon-gradient-3" x1="30.44" y1="23.43" x2="39.84" y2="23.43" href="#oght-icon-gradient-1" />

			<linearGradient id="oght-icon-gradient-4" x1="14.87" y1="23.39" x2="34.26" y2="23.39" gradientUnits="userSpaceOnUse">
				<stop offset="0" style="stop-color:#fff;" />
				<stop offset="1" style="stop-color:#221d64;" />
			</linearGradient>

			<linearGradient id="oght-icon-gradient-5" x1="36.02" x2="55.41" href="#oght-icon-gradient-4" />
			<linearGradient id="oght-icon-gradient-6" x1="23.86" y1="23.42" x2="35.14" y2="23.42" href="#oght-icon-gradient-4" />
			<linearGradient id="oght-icon-gradient-7" x1="35.14" y1="23.42" x2="46.42" y2="23.42" href="#oght-icon-gradient-4" />
		</defs>

		<g>
			<path style="fill:url(#oght-icon-gradient-1);" d="M34.47,43.68c-.24,0-.48-.02-.72-.04-.17-.01-.35-.02-.53-.04-.03,0-.05,0-.08-.01-8.54-1.17-15.19-9.75-15.19-20.16S25.18,3.72,34.26,3.18c.29-.02.58-.03.88-.03-6.23,0-11.28,9.08-11.28,20.28s4.69,19.63,10.61,20.25Z"/>
			<path style="fill:url(#oght-icon-gradient-2);" d="M52.33,23.43c0,10.41-6.65,18.99-15.19,20.16-.03,0-.05.01-.08.01-.18.02-.36.03-.53.04-.24.02-.48.04-.72.04,5.92-.62,10.61-9.44,10.61-20.25S41.37,3.15,35.14,3.15c.3,0,.59.01.88.03,9.08.54,16.31,9.4,16.31,20.25Z"/>
			<path style="fill:url(#oght-icon-gradient-3);" d="M39.84,23.43c0,10.86-1.98,19.72-4.46,20.26-.01.01-.02.01-.03,0-.07.01-.14.01-.21.01s-.14,0-.21-.01c-.01.01-.02.01-.03,0-2.49-.54-4.46-9.4-4.46-20.26s2.1-20.28,4.7-20.28,4.7,9.08,4.7,20.28Z"/>
			<path style="fill:#8b86bf;" d="M70.28,23.42c0,12.94-10.49,23.43-23.42,23.43-4.27,0-8.25-1.15-11.7-3.13.11,0,.22,0,.34-.01.18,0,.35-.01.52-.02.27-.01.53-.03.79-.06.03,0,.06,0,.09-.01.05-.01.11-.01.16-.02.03,0,.05-.01.08-.01.52-.05,1.03-.12,1.54-.21.11-.02.22-.04.33-.06.53-.1,1.05-.22,1.56-.36.09-.03.18-.06.26-.08.53-.16,1.05-.33,1.56-.52.06-.03.13-.06.2-.08.52-.21,1.03-.43,1.53-.68.05-.02.09-.05.14-.07.51-.26,1.01-.54,1.5-.84.03-.02.06-.04.1-.06.49-.31.97-.64,1.44-.98.02-.02.04-.03.06-.05.47-.36.93-.74,1.37-1.13.01-.01.01-.02.02-.03.26-.23.51-.48.75-.72.29-.28.56-.57.82-.87.24-.27.47-.54.69-.82.13-.16.26-.33.38-.5.13-.17.26-.34.37-.51.16-.22.31-.44.45-.67.16-.24.3-.47.44-.72.12-.19.22-.38.32-.58.09-.14.17-.29.24-.44.16-.3.3-.6.43-.91.42-.92.76-1.87,1.03-2.85.08-.27.15-.55.21-.83.27-1.13.44-2.3.5-3.49.03-.37.04-.73.04-1.1,0-.13,0-.27-.01-.4s-.01-.26-.01-.39c-.02-.39-.04-.78-.09-1.17,0-.11,0-.21-.03-.32-.01-.11-.02-.23-.04-.35-.01-.12-.03-.24-.05-.36-.02-.16-.05-.32-.08-.49-.02-.16-.05-.32-.09-.49-.06-.3-.12-.6-.2-.9-.02-.08-.04-.16-.06-.24-.08-.31-.17-.62-.26-.93-.3-.95-.66-1.87-1.09-2.76-.28-.59-.59-1.16-.93-1.72-.33-.55-.7-1.09-1.09-1.61-3.54-4.73-9.08-7.86-15.37-8.12-.29-.02-.58-.03-.88-.03v-.02c3.45-1.99,7.44-3.13,11.72-3.13,12.93,0,23.42,10.48,23.42,23.42Z"/>
			<path style="fill:#8b86bf;" d="M16.83,14.69c-1.27,2.65-1.98,5.61-1.98,8.74,0,.34.01.68.03,1.02.01.3.03.61.06.91.06.58.13,1.14.24,1.7.03.21.08.42.12.63.07.34.16.68.26,1.02.05.22.11.43.19.64.05.22.12.43.19.64.06.16.12.33.18.49.16.44.34.87.53,1.3.1.21.2.42.3.63.05.09.09.18.15.27.01.03.03.06.05.09.05.14.13.27.21.4.16.29.32.57.5.85.08.15.17.29.27.43.08.13.17.25.25.37.15.25.33.5.52.74.08.12.16.24.27.35.26.35.54.7.85,1.03.01.02.02.03.05.05.14.17.29.33.46.49.31.34.64.67.99.96,2.95,2.7,6.7,4.52,10.85,5.06.25.04.51.07.77.09.03.01.05.01.08.01.05,0,.11,0,.16.02.03.01.06.01.09.01.26.03.52.05.79.06.07,0,.14.01.22.01.06.01.12.01.19,0,0,0,.01.01.02.01h.09c.11.01.23.01.34.01-3.45,1.98-7.43,3.13-11.7,3.13C10.49,46.85,0,36.36,0,23.42S10.49,0,23.42,0c4.28,0,8.27,1.14,11.72,3.13v.02c-.3,0-.59.01-.88.03-3.17.12-6.16.99-8.79,2.42-.57.31-1.13.65-1.67,1.01-1.08.73-2.09,1.56-3,2.48-1.15,1.15-2.16,2.43-3.01,3.82-.35.57-.67,1.17-.96,1.78Z"/>
		</g>

		<g>
			<path style="fill:url(#oght-icon-gradient-4);" d="M33.14,43.59c-.52-.05-1.03-.12-1.54-.21-.11-.02-.22-.04-.33-.06-.53-.1-1.05-.22-1.57-.37-.08-.02-.16-.04-.24-.07-.54-.15-1.07-.33-1.59-.53-.04-.02-.09-.04-.14-.06-.55-.21-1.08-.44-1.6-.7-.02-.01-.03-.02-.05-.03-1.24-.62-2.42-1.37-3.5-2.23-.36-.29-.72-.58-1.06-.89-.34-.31-.67-.63-.99-.96-.32-.33-.63-.67-.92-1.03-.15-.18-.29-.35-.44-.54-.19-.23-.36-.47-.53-.72-.18-.24-.34-.49-.51-.74-.27-.42-.53-.84-.77-1.28-.07-.13-.14-.27-.21-.4-.02-.03-.04-.06-.05-.09-.5-.99-.93-2.03-1.27-3.1-.03-.08-.06-.16-.08-.23-.1-.32-.19-.63-.26-.95-.1-.4-.19-.8-.27-1.21-.03-.2-.07-.41-.1-.61-.07-.41-.12-.83-.16-1.25-.01-.16-.03-.32-.04-.49-.03-.47-.05-.94-.05-1.42,0-3.13.71-6.08,1.96-8.73.29-.61.61-1.21.96-1.78.85-1.39,1.86-2.67,3.01-3.82.91-.92,1.92-1.75,3-2.48.54-.36,1.1-.7,1.67-1.01,2.63-1.43,5.62-2.3,8.79-2.42-9.08.54-16.31,9.4-16.31,20.25s6.65,18.99,15.19,20.16Z"/>
			<path style="fill:url(#oght-icon-gradient-5);" d="M55.41,23.03v.39c0,.37-.01.74-.03,1.11-.06,1.19-.23,2.36-.5,3.49-.06.28-.13.56-.21.83-.27.98-.61,1.93-1.03,2.85-.13.31-.28.61-.43.91-.07.15-.15.3-.24.44-.1.2-.2.39-.32.58-.14.25-.28.48-.44.72-.14.23-.29.45-.45.67-.11.17-.24.34-.37.51-.12.17-.25.34-.38.5-.22.28-.45.55-.69.82-.26.3-.53.59-.82.87-.24.24-.49.49-.75.72,0,.01,0,.02-.02.03-.44.39-.9.77-1.37,1.13-.02.02-.04.03-.06.05-.47.34-.95.67-1.44.98-.04.02-.07.04-.1.06-.49.3-.99.58-1.5.84-.05.02-.09.05-.14.07-.5.25-1.01.47-1.53.68-.07.02-.14.05-.2.08-.51.19-1.03.36-1.56.52-.08.02-.17.05-.26.08-.51.14-1.03.26-1.56.36-.11.02-.22.04-.33.06-.51.09-1.02.16-1.54.21,8.54-1.17,15.19-9.75,15.19-20.16S45.1,3.72,36.02,3.18c6.29.26,11.83,3.39,15.37,8.12.38.52.75,1.05,1.09,1.61.34.56.65,1.13.93,1.72.43.89.79,1.81,1.09,2.76.09.31.18.62.26.93.02.08.04.16.06.24.07.3.14.6.2.9.04.17.07.33.09.49.03.17.06.33.08.49.02.12.04.24.05.36.02.12.03.24.04.35.02.11.03.21.03.32.05.39.07.78.09,1.17,0,.13,0,.26.01.39Z"/>
			<path style="fill:url(#oght-icon-gradient-6);" d="M34.9,43.69c-.14.01-.28,0-.41-.01h-.02c-5.92-.62-10.61-9.44-10.61-20.25S28.91,3.15,35.14,3.15c-2.6,0-4.7,9.08-4.7,20.28s1.97,19.72,4.46,20.26Z"/>
			<path style="fill:url(#oght-icon-gradient-7);" d="M46.42,23.43c0,10.81-4.69,19.63-10.61,20.25h-.02c-.13.01-.27.02-.41.01,2.48-.54,4.46-9.4,4.46-20.26s-2.11-20.28-4.7-20.28c6.23,0,11.28,9.08,11.28,20.28Z"/>
		</g>
	</symbol>

</svg>